<?xml version="1.0" encoding="UTF-8" standalone="no"?>
<svg
   xmlns:dc="http://purl.org/dc/elements/1.1/"
   xmlns:cc="http://creativecommons.org/ns#"
   xmlns:rdf="http://www.w3.org/1999/02/22-rdf-syntax-ns#"
   xmlns:svg="http://www.w3.org/2000/svg"
   xmlns="http://www.w3.org/2000/svg"
   viewBox="0 0 100 100"
   height="100"
   width="100"
   xml:space="preserve"
   id="svg2"
   version="1.1"><metadata
     id="metadata8"><rdf:RDF><cc:Work
         rdf:about=""><dc:format>image/svg+xml</dc:format><dc:type
           rdf:resource="http://purl.org/dc/dcmitype/StillImage" /></cc:Work></rdf:RDF></metadata><defs
     id="defs6" /><g
     transform="matrix(1.3333333,0,0,-1.3333333,0,100)"
     id="g10"><g
       transform="scale(0.1)"
       id="g12"><path
         id="path14"
         style="fill:#ffffff;fill-opacity:1;fill-rule:nonzero;stroke:none"
         d="M 0,0 H 750 V 750 H 0 Z" /><path
         id="path16"
         style="fill:#363636;fill-opacity:1;fill-rule:nonzero;stroke:none"
         d="m 233.75,531.68 c -56.762,0 -102.891,-46.168 -102.891,-102.891 0,-56.758 46.129,-102.93 102.891,-102.93 H 336.641 V 531.68 Z M 344.141,310.859 H 233.75 c -65,0 -117.891,52.93 -117.891,117.93 0,65 52.891,117.891 117.891,117.891 h 110.391 c 4.179,0 7.5,-3.36 7.5,-7.5 V 318.359 c 0,-4.14 -3.321,-7.5 -7.5,-7.5" /><path
         id="path18"
         style="fill:#363636;fill-opacity:1;fill-rule:nonzero;stroke:none"
         d="m 351.641,304.059 217.07,-52.18 v 346.75 L 351.641,546.41 Z m 224.57,-69.18 c -0.59,0 -1.211,0.043 -1.762,0.199 l -232.027,55.82 c -3.402,0.782 -5.781,3.793 -5.781,7.262 v 254.219 c 0,3.441 2.379,6.449 5.781,7.312 l 232.027,55.739 c 2.27,0.55 4.61,0.039 6.41,-1.41 1.801,-1.399 2.852,-3.551 2.852,-5.86 V 242.379 c 0,-2.301 -1.051,-4.488 -2.852,-5.899 -1.371,-1.05 -3.007,-1.601 -4.648,-1.601" /><path
         id="path20"
         style="fill:#363636;fill-opacity:1;fill-rule:nonzero;stroke:none"
         d="M 583.711,473.441 V 377.07 c 21.949,1.95 39.258,20.43 39.258,42.969 v 10.43 c 0,22.5 -17.309,41.011 -39.258,42.972 z M 579.84,361.91 h -3.629 c -4.141,0 -7.5,3.36 -7.5,7.5 v 111.719 c 0,4.101 3.359,7.5 7.5,7.5 h 3.629 c 32.07,0 58.129,-26.09 58.129,-58.16 v -10.43 c 0,-32.07 -26.059,-58.129 -58.129,-58.129" /><path
         id="path22"
         style="fill:#363636;fill-opacity:1;fill-rule:nonzero;stroke:none"
         d="M 241.25,310.859 V 149.922 c 0,-18.512 15,-33.473 33.48,-33.473 18.43,0 33.469,14.961 33.469,33.473 V 310.859 Z M 274.73,101.41 c -26.718,0 -48.48,21.75 -48.48,48.512 v 168.437 c 0,4.18 3.359,7.5 7.5,7.5 h 81.949 c 4.141,0 7.5,-3.32 7.5,-7.5 V 149.922 c 0,-26.762 -21.75,-48.512 -48.469,-48.512" /><path
         id="path24"
         style="fill:#363636;fill-opacity:1;fill-rule:nonzero;stroke:none"
         d="m 265.27,191.48 h 15.781 v 85.04 H 265.27 Z m 23.281,-15 H 257.77 c -4.18,0 -7.5,3.36 -7.5,7.5 v 100.04 c 0,4.14 3.32,7.5 7.5,7.5 h 30.781 c 4.148,0 7.5,-3.36 7.5,-7.5 V 183.98 c 0,-4.14 -3.352,-7.5 -7.5,-7.5" /></g></g></svg>