<?xml version="1.0" encoding="UTF-8" standalone="no"?>
<svg
   xmlns:dc="http://purl.org/dc/elements/1.1/"
   xmlns:cc="http://creativecommons.org/ns#"
   xmlns:rdf="http://www.w3.org/1999/02/22-rdf-syntax-ns#"
   xmlns:svg="http://www.w3.org/2000/svg"
   xmlns="http://www.w3.org/2000/svg"
   viewBox="0 0 2000.0933 2000"
   height="2000"
   width="2000.0933"
   xml:space="preserve"
   id="svg2"
   version="1.1"><metadata
     id="metadata8"><rdf:RDF><cc:Work
         rdf:about=""><dc:format>image/svg+xml</dc:format><dc:type
           rdf:resource="http://purl.org/dc/dcmitype/StillImage" /></cc:Work></rdf:RDF></metadata><defs
     id="defs6" /><g
     transform="matrix(1.3333333,0,0,-1.3333333,0,2000)"
     id="g10"><g
       transform="scale(0.1)"
       id="g12"><path
         id="path14"
         style="fill:#d9a544;fill-opacity:1;fill-rule:nonzero;stroke:none"
         d="m 14758.4,9868.32 c -129.4,662.08 -385.7,1397.78 -738,1990.18 -318.4,535.4 -627.4,1276.7 -1158.3,1671.8 -803.3,597.8 -1893.5,695.8 -2825.7,1027.4 -717.81,255.1 -1363.74,442.3 -2133.26,442.3 0,0 -2470.75,-37.8 -3302.98,-529.9 -811.18,-479.7 -1695.73,-944.6 -2363.4,-1578.6 C 1712.61,12393.9 1221.98,11952.6 928.086,11312.8 727.355,10876 661.094,10376.9 427.629,9675.7 -246.57,7651.07 -167.137,5563.84 979.25,3760.19 1784.25,2493.75 2373.87,1756.95 3724.77,1022.91 5262.9,187.234 6641.61,0 8451.55,0 c 846.2,0 1790.55,280.168 2201.95,494.18 753.6,392.539 1657,916.93 2247.5,1492.81 570.7,556.65 938.1,1206.93 1279.3,1899.54 346.5,702.7 491.5,1414.99 602.5,2165.3 92.7,626.24 195.7,1204.18 215.4,1841.18 21.9,687.92 -107.8,1302.61 -239.8,1975.31" /><path
         id="path16"
         style="fill:#6c3918;fill-opacity:1;fill-rule:nonzero;stroke:none"
         d="m 8265.7,13841.8 c 392.99,0 529.64,-198 529.64,-591.2 0,-494.5 -318.61,-711.8 -711.61,-711.8 -393.12,0 -711.74,318.8 -711.74,711.8 -0.22,393 500.47,591.2 893.71,591.2 z m -6823.98,-5044 c 0,417.04 413.03,755.11 830.06,755.11 416.81,0 387.28,-338.07 387.28,-755.11 0,-416.92 -171.43,-754.87 -588.36,-754.87 -417.15,0 -628.98,338.07 -628.98,754.87 z M 3321.58,3388.48 c -467.73,0 -1072.46,495.31 -1072.46,962.7 0,467.86 379.15,682.32 846.89,682.32 467.73,0 846.89,-214.46 846.89,-682.32 -0.11,-467.39 -153.58,-962.7 -621.32,-962.7 z m 415.09,8253.02 c 0,477 309.46,1042.5 863.25,863.4 453.55,-146.7 863.26,-386.4 863.26,-863.4 0,-476.6 -386.48,-863.1 -863.26,-863.1 -477,0 -863.25,386.5 -863.25,863.1 z M 6110.7,5946.54 c -431.57,0 -944.51,350.2 -944.51,781.88 0,431.69 122.12,781.66 553.69,781.66 431.68,0 1009.74,-349.97 1009.74,-781.66 0.12,-431.68 -187.23,-781.88 -618.92,-781.88 z M 7233.63,1516.62 c -357.07,0 -646.37,289.32 -646.37,646.39 0,493.25 406.5,749.37 763.68,749.37 356.95,0 648.45,-340.58 648.45,-697.88 0.1,-356.83 -562.96,-697.88 -765.76,-697.88 z m 272.39,8250.99 c 0,388.39 543.84,664.49 932.14,664.49 388.32,0 474.83,-276.1 474.83,-664.49 0,-388.43 -130.92,-703.26 -519.57,-703.26 -388.43,0 -887.4,314.83 -887.4,703.26 z M 9267.88,4545.73 c -389.91,0 -902.39,158.85 -902.39,548.42 0,389.57 313.81,852.39 703.6,852.39 389.91,0 703.38,-383.85 703.38,-773.65 0,-390.03 -114.9,-627.16 -504.59,-627.16 z m 1468.72,6802.17 c 234.6,328.4 366.9,819.6 819.6,819.6 309,0 736.3,-374.7 819.9,-819.6 124.4,-665.2 -367.4,-819.9 -819.9,-819.9 -452.5,0 -1067.8,472.4 -819.6,819.9 z m 1071.5,-8226.31 c -579.9,0 -749.5,374.23 -749.5,836.14 0,461.66 358.2,834.98 819.9,834.98 461.5,0 614.8,-132.07 614.8,-593.51 0,-461.45 -223.7,-1077.61 -685.2,-1077.61 z m 1039.1,3698.38 c -412.1,0 -660.4,180.37 -660.4,592.6 0,412.34 498.5,787.61 910.6,787.61 412.5,0 461.6,-298.48 461.6,-710.71 0,-412 -299.4,-669.5 -711.8,-669.5" /></g></g></svg>