<?xml version="1.0" encoding="UTF-8"?>
<svg width="96px" height="64px" viewBox="0 0 96 64" version="1.1" xmlns="http://www.w3.org/2000/svg" xmlns:xlink="http://www.w3.org/1999/xlink">
    <!-- Generator: Sketch 47 (45396) - http://www.bohemiancoding.com/sketch -->
    <title>Badge / xx_xx / slice_it / standard /pink</title>
    <desc>Created with Sketch.</desc>
    <defs>
        <rect id="path-1" x="0" y="0" width="96" height="64" rx="5"></rect>
    </defs>
    <g id="Badges" stroke="none" stroke-width="1" fill="none" fill-rule="evenodd">
        <g id="Logo" transform="translate(-258.000000, -122.000000)">
            <g id="Badge-/-xx_xx-/-slice_it-/-standard-/pink" transform="translate(258.000000, 122.000000)">
                <g id="BG-/-Radius-5">
                    <mask id="mask-2" fill="white">
                        <use xlink:href="#path-1"></use>
                    </mask>
                    <g id="BG"></g>
                    <g id="Color-/-Pink" mask="url(#mask-2)" fill-rule="evenodd" fill="#EB6F93">
                        <rect id="BG" x="0" y="0" width="96" height="64"></rect>
                    </g>
                </g>
                <g id="Logo-/-White-(Clean)-Copy" transform="translate(20.000000, 44.000000)" fill-rule="nonzero" fill="#FFFFFF">
                    <path d="M10.204415,0 L7.34922737,0 C7.34922737,2.33235294 6.27373068,4.46078431 4.40441501,5.8627451 L3.27770419,6.70392157 L7.65651214,12.6431373 L11.2543046,12.6431373 L7.22119205,7.1754902 C9.12891832,5.28921569 10.204415,2.74019608 10.204415,0 Z" id="Shape"></path>
                    <rect id="Rectangle-path" x="0" y="0" width="2.9192053" height="12.6431373"></rect>
                    <rect id="Rectangle-path" x="12.0993377" y="0" width="2.75275938" height="12.6431373"></rect>
                    <path d="M38.9995585,3.65784314 C37.9496689,3.65784314 36.9509934,3.97647059 36.2852097,4.88137255 L36.2852097,3.9 L33.6732892,3.9 L33.6732892,12.6431373 L36.3236203,12.6431373 L36.3236203,8.05490196 C36.3236203,6.72941176 37.2198675,6.07941176 38.2953642,6.07941176 C39.4476821,6.07941176 40.1134658,6.76764706 40.1134658,8.04215686 L40.1134658,12.6558824 L42.7381898,12.6558824 L42.7381898,7.08627451 C42.7381898,5.04705882 41.1121413,3.65784314 38.9995585,3.65784314 Z" id="Shape"></path>
                    <path d="M23.1743929,3.9 L23.1743929,4.46078431 C22.4317881,3.95098039 21.5355408,3.65784314 20.5624724,3.65784314 C18.001766,3.65784314 15.9275938,5.72254902 15.9275938,8.27156863 C15.9275938,10.8205882 18.001766,12.8852941 20.5624724,12.8852941 C21.5355408,12.8852941 22.4317881,12.5921569 23.1743929,12.0823529 L23.1743929,12.6431373 L25.799117,12.6431373 L25.799117,3.9 L23.1743929,3.9 Z M20.7801325,10.5147059 C19.4613687,10.5147059 18.3986755,9.50784314 18.3986755,8.27156863 C18.3986755,7.03529412 19.4613687,6.02843137 20.7801325,6.02843137 C22.0988962,6.02843137 23.1615894,7.03529412 23.1615894,8.27156863 C23.1615894,9.50784314 22.0988962,10.5147059 20.7801325,10.5147059 Z" id="Shape"></path>
                    <path d="M29.8706402,5.03431373 L29.8706402,3.9 L27.1818985,3.9 L27.1818985,12.6431373 L29.8834437,12.6431373 L29.8834437,8.56470588 C29.8834437,7.18823529 31.381457,6.44901961 32.418543,6.44901961 C32.4313466,6.44901961 32.4441501,6.44901961 32.4441501,6.44901961 L32.4441501,3.9 C31.381457,3.9 30.395585,4.35882353 29.8706402,5.03431373 Z" id="Shape"></path>
                    <path d="M50.9068433,3.9 L50.9068433,4.46078431 C50.1642384,3.95098039 49.2679912,3.65784314 48.2949227,3.65784314 C45.7342163,3.65784314 43.6600442,5.72254902 43.6600442,8.27156863 C43.6600442,10.8205882 45.7342163,12.8852941 48.2949227,12.8852941 C49.2679912,12.8852941 50.1642384,12.5921569 50.9068433,12.0823529 L50.9068433,12.6431373 L53.5315673,12.6431373 L53.5315673,3.9 L50.9068433,3.9 Z M48.5125828,10.5147059 C47.193819,10.5147059 46.1311258,9.50784314 46.1311258,8.27156863 C46.1311258,7.03529412 47.193819,6.02843137 48.5125828,6.02843137 C49.8313466,6.02843137 50.8940397,7.03529412 50.8940397,8.27156863 C50.9068433,9.50784314 49.8313466,10.5147059 48.5125828,10.5147059 Z" id="Shape"></path>
                    <path d="M56.3355408,9.54607843 C55.4264901,9.54607843 54.6838852,10.2852941 54.6838852,11.1901961 C54.6838852,12.095098 55.4264901,12.8343137 56.3355408,12.8343137 C57.2445916,12.8343137 57.9871965,12.095098 57.9871965,11.1901961 C57.9871965,10.272549 57.2445916,9.54607843 56.3355408,9.54607843 Z" id="Shape"></path>
                </g>
                <g id="Icons-/-Slice-it-/-White" transform="translate(29.000000, 7.000000)" fill-rule="nonzero" fill="#FFFFFF">
                    <path d="M36.3152711,29.919671 L15.6977376,1.15054608 C8.07235576,6.66112179 2.85374621,14.8222458 1.09912182,23.9806066 L36.3152711,29.919671 Z M-0.39965906,24.4266566 C1.3242302,14.4070545 7.03281759,5.47973956 15.4597499,-0.37491514 C15.7744947,-0.593585653 16.2094443,-0.519586034 16.4316209,-0.209567079 L38.4257588,30.4804329 C38.7842565,30.9806705 38.3506249,31.6585375 37.7381958,31.5552538 L0.170609623,25.2196288 C-0.20884522,25.1556352 -0.464030118,24.8007945 -0.39965906,24.4266566 Z" id="_Path_"></path>
                    <path d="M17.9155749,4.31354903 C17.736577,4.49098669 17.5529031,4.68753837 17.2950803,4.97356131 C17.2248221,5.05150428 16.970678,5.33505065 16.9781679,5.32670822 C16.8501449,5.46930401 16.7518989,5.57779343 16.6550939,5.68306173 C15.5238494,6.91320632 14.7218002,7.48384411 13.9515017,7.49496965 C10.4392281,7.5522476 8.73902946,9.76296212 8.83535812,12.7255756 C8.84228877,12.9335742 8.8553924,13.1123577 8.87957352,13.3700525 C8.91945057,13.7950165 8.92513522,13.873989 8.92151523,14.026836 C8.90414768,14.760148 8.35260248,15.6205419 6.23620625,17.8744484 C3.65691597,20.623922 3.58169853,23.8224665 5.09879985,25.8536354 C5.32727955,26.1595351 5.76406557,26.2249366 6.07438874,25.9997137 C6.38471192,25.7744909 6.45105916,25.343931 6.22257946,25.0380313 C5.09139278,23.5235437 5.14934535,21.0591705 7.26056872,18.8086471 C9.60181813,16.315278 10.2885872,15.2439388 10.3166523,14.0589428 C10.3220762,13.8299283 10.3150772,13.7326962 10.2691588,13.2433498 C10.2473077,13.0104864 10.2359644,12.8557199 10.2301411,12.6809615 C10.1568325,10.4263282 11.3201568,8.91369441 13.9732664,8.87042672 C15.2640772,8.85178457 16.3071049,8.10969669 17.6890281,6.60695744 C17.7901975,6.49694321 17.891819,6.3847264 18.0232029,6.2383871 C18.016898,6.24540975 18.2695585,5.96351848 18.3382748,5.8872861 C18.5801124,5.61899677 18.7487439,5.43854218 18.9051148,5.2835343 C19.1768421,5.01417547 19.1756046,4.57867839 18.9023507,4.31082435 C18.6290968,4.04297032 18.1873022,4.0441902 17.9155749,4.31354903 Z" id="_Path_2"></path>
                    <path d="M16.3659527,27.3431845 C17.3222048,25.1332085 19.6342904,23.8017156 22.0568651,24.0658795 C24.4794398,24.3300435 26.4403997,26.1274807 26.8835251,28.4900485 C26.9235244,28.7028882 26.9507543,28.9176221 26.9651185,29.133376 C26.9903546,29.512429 27.3225391,29.7995458 27.7070734,29.7746694 C28.0916076,29.749793 28.3828763,29.4223436 28.3576401,29.0432906 C28.3396912,28.773693 28.3056658,28.50537 28.2557404,28.2397125 C27.7007621,25.2807897 25.244622,23.0294651 22.2103005,22.6985946 C19.1759791,22.3677241 16.2800474,24.0354447 15.0823232,26.8034822 C14.9311334,27.152894 15.0959201,27.5569648 15.4503846,27.7059994 C15.8048491,27.8550341 16.2147629,27.6925963 16.3659527,27.3431845 Z" id="_Path_3"></path>
                    <path d="M13.9961897,21.1345402 C12.0139812,20.7559059 9.96798384,21.3398683 8.49765521,22.7039152 C8.21702863,22.9642569 8.20363635,23.3995556 8.4677427,23.676182 C8.73184906,23.9528084 9.17344235,23.9660098 9.45406893,23.7056681 C10.5976579,22.6447427 12.1889892,22.1905498 13.7307069,22.4850431 C14.1090307,22.5573092 14.4751531,22.313572 14.5484642,21.9406409 C14.6217753,21.5677099 14.3745135,21.2068063 13.9961897,21.1345402 Z" id="_Path_4"></path>
                    <path d="M23.5806512,18.8017167 C24.2301962,20.6879229 25.7608396,22.1507801 27.693496,22.7324199 C28.0620628,22.8433413 28.4520651,22.6387375 28.5645906,22.2754244 C28.677116,21.9121113 28.4695535,21.5276683 28.1009867,21.4167468 C26.5978094,20.9643604 25.407309,19.8265825 24.9021074,18.3595333 C24.7782361,17.9998248 24.3820005,17.8072096 24.0170905,17.9293152 C23.6521804,18.0514208 23.4567799,18.4420083 23.5806512,18.8017167 Z" id="_Path_5"></path>
                    <path d="M17.4431464,20.1701836 C14.647919,20.1701836 12.3819395,17.9365042 12.3819395,15.1811211 C12.3819395,12.425738 14.647919,10.1920586 17.4431464,10.1920586 C20.2383738,10.1920586 22.5043533,12.425738 22.5043533,15.1811211 C22.5043533,17.9365042 20.2383738,20.1701836 17.4431464,20.1701836 Z M17.4431464,18.7945586 C19.4676509,18.7945586 21.1088361,17.1767675 21.1088361,15.1811211 C21.1088361,13.1854747 19.4676509,11.5676836 17.4431464,11.5676836 C15.4186419,11.5676836 13.7774568,13.1854747 13.7774568,15.1811211 C13.7774568,17.1767675 15.4186419,18.7945586 17.4431464,18.7945586 Z" id="Oval"></path>
                </g>
            </g>
        </g>
    </g>
</svg>