<?xml version="1.0" encoding="UTF-8"?>
<svg width="96px" height="64px" viewBox="0 0 96 64" version="1.1" xmlns="http://www.w3.org/2000/svg" xmlns:xlink="http://www.w3.org/1999/xlink">
    <!-- Generator: Sketch 47 (45396) - http://www.bohemiancoding.com/sketch -->
    <title>Badge / xx_xx / pay_later / standard /pink</title>
    <desc>Created with Sketch.</desc>
    <defs>
        <rect id="path-1" x="0" y="0" width="96" height="64" rx="5"></rect>
    </defs>
    <g id="Badges" stroke="none" stroke-width="1" fill="none" fill-rule="evenodd">
        <g id="Logo" transform="translate(-142.000000, -122.000000)">
            <g id="Badge-/-xx_xx-/-pay_later-/-standard-/pink" transform="translate(142.000000, 122.000000)">
                <g id="BG-/-Radius-5">
                    <mask id="mask-2" fill="white">
                        <use xlink:href="#path-1"></use>
                    </mask>
                    <g id="BG"></g>
                    <g id="Color-/-Pink" mask="url(#mask-2)" fill-rule="evenodd" fill="#EB6F93">
                        <rect id="BG" x="0" y="0" width="96" height="64"></rect>
                    </g>
                </g>
                <g id="Logo-/-White-(Clean)-Copy" transform="translate(20.000000, 44.000000)" fill-rule="nonzero" fill="#FFFFFF">
                    <path d="M10.204415,0 L7.34922737,0 C7.34922737,2.33235294 6.27373068,4.46078431 4.40441501,5.8627451 L3.27770419,6.70392157 L7.65651214,12.6431373 L11.2543046,12.6431373 L7.22119205,7.1754902 C9.12891832,5.28921569 10.204415,2.74019608 10.204415,0 Z" id="Shape"></path>
                    <rect id="Rectangle-path" x="0" y="0" width="2.9192053" height="12.6431373"></rect>
                    <rect id="Rectangle-path" x="12.0993377" y="0" width="2.75275938" height="12.6431373"></rect>
                    <path d="M38.9995585,3.65784314 C37.9496689,3.65784314 36.9509934,3.97647059 36.2852097,4.88137255 L36.2852097,3.9 L33.6732892,3.9 L33.6732892,12.6431373 L36.3236203,12.6431373 L36.3236203,8.05490196 C36.3236203,6.72941176 37.2198675,6.07941176 38.2953642,6.07941176 C39.4476821,6.07941176 40.1134658,6.76764706 40.1134658,8.04215686 L40.1134658,12.6558824 L42.7381898,12.6558824 L42.7381898,7.08627451 C42.7381898,5.04705882 41.1121413,3.65784314 38.9995585,3.65784314 Z" id="Shape"></path>
                    <path d="M23.1743929,3.9 L23.1743929,4.46078431 C22.4317881,3.95098039 21.5355408,3.65784314 20.5624724,3.65784314 C18.001766,3.65784314 15.9275938,5.72254902 15.9275938,8.27156863 C15.9275938,10.8205882 18.001766,12.8852941 20.5624724,12.8852941 C21.5355408,12.8852941 22.4317881,12.5921569 23.1743929,12.0823529 L23.1743929,12.6431373 L25.799117,12.6431373 L25.799117,3.9 L23.1743929,3.9 Z M20.7801325,10.5147059 C19.4613687,10.5147059 18.3986755,9.50784314 18.3986755,8.27156863 C18.3986755,7.03529412 19.4613687,6.02843137 20.7801325,6.02843137 C22.0988962,6.02843137 23.1615894,7.03529412 23.1615894,8.27156863 C23.1615894,9.50784314 22.0988962,10.5147059 20.7801325,10.5147059 Z" id="Shape"></path>
                    <path d="M29.8706402,5.03431373 L29.8706402,3.9 L27.1818985,3.9 L27.1818985,12.6431373 L29.8834437,12.6431373 L29.8834437,8.56470588 C29.8834437,7.18823529 31.381457,6.44901961 32.418543,6.44901961 C32.4313466,6.44901961 32.4441501,6.44901961 32.4441501,6.44901961 L32.4441501,3.9 C31.381457,3.9 30.395585,4.35882353 29.8706402,5.03431373 Z" id="Shape"></path>
                    <path d="M50.9068433,3.9 L50.9068433,4.46078431 C50.1642384,3.95098039 49.2679912,3.65784314 48.2949227,3.65784314 C45.7342163,3.65784314 43.6600442,5.72254902 43.6600442,8.27156863 C43.6600442,10.8205882 45.7342163,12.8852941 48.2949227,12.8852941 C49.2679912,12.8852941 50.1642384,12.5921569 50.9068433,12.0823529 L50.9068433,12.6431373 L53.5315673,12.6431373 L53.5315673,3.9 L50.9068433,3.9 Z M48.5125828,10.5147059 C47.193819,10.5147059 46.1311258,9.50784314 46.1311258,8.27156863 C46.1311258,7.03529412 47.193819,6.02843137 48.5125828,6.02843137 C49.8313466,6.02843137 50.8940397,7.03529412 50.8940397,8.27156863 C50.9068433,9.50784314 49.8313466,10.5147059 48.5125828,10.5147059 Z" id="Shape"></path>
                    <path d="M56.3355408,9.54607843 C55.4264901,9.54607843 54.6838852,10.2852941 54.6838852,11.1901961 C54.6838852,12.095098 55.4264901,12.8343137 56.3355408,12.8343137 C57.2445916,12.8343137 57.9871965,12.095098 57.9871965,11.1901961 C57.9871965,10.272549 57.2445916,9.54607843 56.3355408,9.54607843 Z" id="Shape"></path>
                </g>
                <g id="Icons-/-Pay-later-/-White" transform="translate(22.000000, 15.000000)" fill-rule="nonzero" fill="#FFFFFF">
                    <path d="M0.719810127,1.52849965 C4.54695491,1.12259218 8.39310728,0.911515668 12.2427952,0.896161092 C14.9435099,0.896166667 16.9060905,0.984270774 19.5783414,1.18241499 C19.8077294,1.19942383 20.6359361,1.26191808 20.8189264,1.27551501 C21.2922534,1.31068515 21.664025,1.33691591 22.0241845,1.36004158 C23.1975262,1.43538129 24.1930474,1.4725 25.2482278,1.4725 C25.6279411,1.4725 25.9357595,1.17051606 25.9357595,0.798 C25.9357595,0.425483936 25.6279411,0.1235 25.2482278,0.1235 C24.2257818,0.1235 23.2593953,0.0874675968 22.1139903,0.0139216963 C21.7592409,-0.00885659215 21.3918171,-0.0347805986 20.9227758,-0.0696322886 C20.7408922,-0.0831469926 19.9125413,-0.145652112 19.681975,-0.162748325 C16.9779172,-0.363250985 14.9824078,-0.452833333 12.24,-0.452833333 C8.13294116,-0.436457802 4.03264712,-0.200336204 -0.0453826788,0.25448351 C-0.392808828,0.293231697 -0.655253165,0.581630263 -0.655253165,0.924666667 L-0.655253165,3.04 C-0.655253165,3.15057517 -0.627543009,3.25945459 -0.574562351,3.35705233 C-0.0288581285,4.36231531 0.317603058,5.45997388 0.446463636,6.59186756 C0.628205667,10.0896031 0.989193011,12.2789666 2.09415661,14.473512 C3.69629089,17.655478 6.55203436,19.4528333 10.8907595,19.4528333 C18.4709071,19.4577485 20.7140472,17.7729507 22.3404354,12.7478931 C22.3665527,12.6671983 22.5407598,12.1252473 22.5926863,11.9655842 C22.6908104,11.6638736 22.7740202,11.4153168 22.8578776,11.1756668 C22.7641909,11.4428721 23.9950592,7.79580779 24.2666924,7.15080504 C24.6656021,6.20357958 24.9586277,5.8805 25.2482278,5.8805 C25.6279411,5.8805 25.9357595,5.57851606 25.9357595,5.206 C25.9357595,4.83348394 25.6279411,4.5315 25.2482278,4.5315 C24.2216121,4.5315 23.5875689,5.23057324 22.9958233,6.63569437 C22.7020299,7.33331744 21.4441471,11.060426 21.5574498,10.7372739 C21.4697776,10.9878256 21.3836096,11.2452186 21.2826863,11.5555362 C21.2298978,11.7178498 21.055291,12.2610445 21.0298522,12.339643 C20.2978991,14.601161 19.7665217,15.5979016 18.6387332,16.4449711 C17.1777658,17.5422877 14.7695704,18.1063482 10.8912139,18.1038335 C7.08312988,18.1038333 4.70073914,16.604398 3.32701428,13.8760713 C2.33091344,11.8977359 1.99220321,9.84348157 1.81637481,6.48242886 C1.67147416,5.19920058 1.3007726,3.98884098 0.719810127,2.87459915 L0.719810127,1.52849965 Z" id="_Path_"></path>
                    <path d="M11.0973418,15.7763333 L11.0263291,15.7763333 C9.37055604,15.8324823 7.76500686,15.2134406 6.59126582,14.0663333 C4.19620253,11.685 4.23493671,7.733 4.23493671,7.543 C4.17683544,6.96666667 4.15101266,6.33333333 4.15101266,5.7 C4.08624999,5.12157522 4.26215493,4.5419865 4.6388815,4.09252223 C5.01560807,3.64305796 5.56127523,3.36175473 6.15227848,3.31233333 C7.8178481,3.12866667 10.3743038,3.04 12.0527848,3.021 C16.3651899,2.97033333 18.7150633,3.23 19.6705063,3.85066667 C20.9616456,4.674 20.7937975,5.90266667 19.6705063,9.41133333 L19.3670886,10.1713333 C18.2502532,13.7813333 17.6175949,15.7763333 11.0973418,15.7763333 Z M13.5365457,4.23997652 L7.00338115,12.2516432 C6.76617616,12.5425294 6.81424932,12.9669871 7.11075555,13.199696 C7.40726178,13.432405 7.8399202,13.385243 8.07712518,13.0943568 L14.6102897,5.08269014 C14.8474947,4.79180397 14.7994216,4.36734626 14.5029153,4.13463732 C14.2064091,3.90192838 13.7737507,3.94909035 13.5365457,4.23997652 Z M9.2048457,3.96755474 L5.4540862,8.56555474 C5.21683142,8.85640182 5.26483191,9.28086744 5.5612983,9.51362524 C5.85776468,9.74638303 6.29043117,9.69929235 6.52768595,9.40844526 L10.2784454,4.81044526 C10.5157002,4.51959818 10.4676997,4.09513256 10.1712333,3.86237476 C9.87476696,3.62961697 9.44210047,3.67670765 9.2048457,3.96755474 Z" id="Combined-Shape"></path>
                    <path d="M49.7766456,1.52849962 L49.7766456,2.87459635 C49.1956893,3.98876489 48.8251272,5.19744534 48.6834257,6.44213244 C48.5042525,9.84348157 48.1655423,11.8977359 47.1694414,13.8760713 C45.7957166,16.604398 43.4133258,18.1038333 39.6056962,18.1038333 C35.7313887,18.1038333 33.3237584,17.5361414 31.8610388,16.4341683 C30.7319258,15.5835253 30.1989183,14.584056 29.4629941,12.3178198 C29.4373786,12.2389384 29.2639588,11.7012969 29.2116111,11.5408447 C29.1113261,11.2334583 29.0258114,10.9786454 28.9390409,10.7310404 C29.0523086,11.0540927 27.7944258,7.3269841 27.5006323,6.62936104 C26.9088868,5.22423991 26.2748436,4.52516667 25.2482278,4.52516667 C24.8685146,4.52516667 24.5606962,4.8271506 24.5606962,5.19966667 C24.5606962,5.57218273 24.8685146,5.87416667 25.2482278,5.87416667 C25.537828,5.87416667 25.8308536,6.19724625 26.2297633,7.14447171 C26.5013965,7.78947445 27.7322648,11.4365387 27.6387156,11.1697261 C27.7218444,11.4069393 27.8044567,11.6531037 27.9019931,11.9520651 C27.9534961,12.1099285 28.1265292,12.646371 28.1528113,12.7273051 C29.7875585,17.7614154 32.0326861,19.4528333 39.6056962,19.4528333 C43.9444213,19.4528333 46.8001648,17.655478 48.4022991,14.473512 C49.5072627,12.2789666 49.86825,10.0896031 50.0533368,6.55157114 C50.1788526,5.45997388 50.5253138,4.36231531 51.071018,3.35705233 C51.1239987,3.25945459 51.1517089,3.15057517 51.1517089,3.04 L51.1517089,0.924666667 C51.1517089,0.581630263 50.8892645,0.293231697 50.5418384,0.25448351 C46.4638086,-0.200336204 42.3635145,-0.436457802 38.2592509,-0.452827759 C35.5140479,-0.452833333 33.5185385,-0.363250985 30.8144807,-0.162748325 C30.5839144,-0.145652112 29.7555635,-0.0831469926 29.5736799,-0.0696322886 C29.1046386,-0.0347805986 28.7372148,-0.00885659215 28.3824654,0.0139216963 C27.2370604,0.0874675968 26.2706739,0.1235 25.2482278,0.1235 C24.8685146,0.1235 24.5606962,0.425483936 24.5606962,0.798 C24.5606962,1.17051606 24.8685146,1.4725 25.2482278,1.4725 C26.3034083,1.4725 27.2989295,1.43538129 28.4722712,1.36004158 C28.8324307,1.33691591 29.2042023,1.31068515 29.6775293,1.27551501 C29.8605196,1.26191808 30.6887263,1.19942383 30.9181143,1.18241499 C33.5903652,0.984270774 35.5529458,0.896166667 38.2564557,0.896166667 C42.1034893,0.911515949 45.9495077,1.12259218 49.7766456,1.52849962 Z" id="_Path_2"></path>
                    <path d="M39.3797468,15.7763333 C32.8594937,15.7763333 32.2268354,13.7813333 31.0841772,10.1776667 L30.8324051,9.386 C29.6897468,5.87733333 29.5412658,4.655 30.8324051,3.82533333 C31.7878481,3.192 34.1377215,2.945 38.4501266,2.99566667 C40.1350633,2.99566667 42.6850633,3.10333333 44.3506329,3.287 C44.9452315,3.33947582 45.4930395,3.62527161 45.8698234,4.07957378 C46.2466072,4.53387596 46.4204397,5.11818874 46.3518987,5.7 C46.3518987,6.33333333 46.3518987,6.96666667 46.261519,7.6 C46.261519,7.714 46.3002532,11.6913333 43.9051899,14.0726667 C42.729896,15.2214104 41.1216594,15.840587 39.4636709,15.7826667 L39.3797468,15.7826667 L39.3797468,15.7763333 Z M35.5892761,3.96755474 L31.8385166,8.56555474 C31.6012618,8.85640182 31.6492623,9.28086744 31.9457287,9.51362524 C32.2421951,9.74638303 32.6748616,9.69929235 32.9121163,9.40844526 L36.6628758,4.81044526 C36.9001306,4.51959818 36.8521301,4.09513256 36.5556637,3.86237476 C36.2591973,3.62961697 35.8265309,3.67670765 35.5892761,3.96755474 Z M39.9209761,4.23997652 L33.3878115,12.2516432 C33.1506065,12.5425294 33.1986797,12.9669871 33.4951859,13.199696 C33.7916922,13.432405 34.2243506,13.385243 34.4615556,13.0943568 L40.9947201,5.08269014 C41.2319251,4.79180397 41.1838519,4.36734626 40.8873457,4.13463732 C40.5908395,3.90192838 40.1581811,3.94909035 39.9209761,4.23997652 Z" id="Combined-Shape"></path>
                </g>
            </g>
        </g>
    </g>
</svg>