<?xml version="1.0" encoding="UTF-8" standalone="no"?>
<svg
   xmlns:dc="http://purl.org/dc/elements/1.1/"
   xmlns:cc="http://creativecommons.org/ns#"
   xmlns:rdf="http://www.w3.org/1999/02/22-rdf-syntax-ns#"
   xmlns:svg="http://www.w3.org/2000/svg"
   xmlns="http://www.w3.org/2000/svg"
   viewBox="0 0 100 100"
   height="100"
   width="100"
   xml:space="preserve"
   id="svg2"
   version="1.1"><metadata
     id="metadata8"><rdf:RDF><cc:Work
         rdf:about=""><dc:format>image/svg+xml</dc:format><dc:type
           rdf:resource="http://purl.org/dc/dcmitype/StillImage" /></cc:Work></rdf:RDF></metadata><defs
     id="defs6" /><g
     transform="matrix(1.3333333,0,0,-1.3333333,0,100)"
     id="g10"><g
       transform="scale(0.1)"
       id="g12"><path
         id="path14"
         style="fill:#ffffff;fill-opacity:1;fill-rule:nonzero;stroke:none"
         d="M 0,0 H 750 V 750 H 0 Z" /><path
         id="path16"
         style="fill:#363636;fill-opacity:1;fill-rule:nonzero;stroke:none"
         d="m 381.02,501.328 c -77.899,0 -141.29,-63.398 -141.29,-141.289 0,-77.969 63.391,-141.367 141.29,-141.367 77.96,0 141.359,63.398 141.359,141.367 0,77.891 -63.399,141.289 -141.359,141.289 z m 0,-297.617 c -86.141,0 -156.29,70.117 -156.29,156.328 0,86.172 70.149,156.289 156.29,156.289 86.21,0 156.359,-70.117 156.359,-156.289 0,-86.211 -70.149,-156.328 -156.359,-156.328" /><path
         id="path18"
         style="fill:#363636;fill-opacity:1;fill-rule:nonzero;stroke:none"
         d="m 379.141,101.879 c -4.141,0 -7.5,3.351 -7.5,7.5 0,4.172 3.359,7.5 7.5,7.5 128.281,0 235.507,100.191 244.097,228.043 0.282,4.18 3.91,7.269 8.012,6.988 4.102,-0.269 7.23,-3.859 6.91,-7.961 -9.101,-135.75 -122.89,-242.07 -259.019,-242.07" /><path
         id="path20"
         style="fill:#363636;fill-opacity:1;fill-rule:nonzero;stroke:none"
         d="m 603.52,315.898 26.679,24.141 24.141,-26.719 1.051,21.559 -24.102,26.723 -26.641,-24.18 -1.128,-21.524" /><path
         id="path22"
         style="fill:#363636;fill-opacity:1;fill-rule:nonzero;stroke:none"
         d="m 127.539,371.25 h -0.508 c -4.14,0.23 -7.301,3.828 -6.992,8.012 9.102,135.66 122.891,241.988 259.102,241.988 4.097,0 7.5,-3.359 7.5,-7.5 0,-4.18 -3.403,-7.5 -7.5,-7.5 -128.282,0 -235.551,-100.16 -244.18,-228.051 -0.231,-3.937 -3.512,-6.949 -7.422,-6.949" /><path
         id="path24"
         style="fill:#363636;fill-opacity:1;fill-rule:nonzero;stroke:none"
         d="m 154.73,407.23 -26.679,-24.109 -24.102,26.719 -1.097,-21.602 24.097,-26.636 26.68,24.058 1.101,21.57" /><path
         id="path26"
         style="fill:#363636;fill-opacity:1;fill-rule:nonzero;stroke:none"
         d="m 370.941,554.922 c 0,4.18 3.321,7.578 7.5,7.578 4.098,0 7.5,-3.359 7.5,-7.5 0,-4.18 -3.363,-7.5 -7.5,-7.5 -4.101,0 -7.5,3.281 -7.5,7.422 z m 64.957,-16.332 c -3.91,1.289 -6.128,5.512 -4.847,9.461 1.289,3.937 5.469,6.09 9.418,4.84 3.98,-1.25 6.172,-5.512 4.883,-9.45 -1.012,-3.132 -3.981,-5.203 -7.192,-5.203 -0.738,0 -1.48,0.082 -2.262,0.352 z m -124.296,4.461 c -1.293,3.937 0.898,8.199 4.769,9.488 3.981,1.289 8.16,-0.859 9.449,-4.809 1.328,-3.941 -0.82,-8.199 -4.73,-9.449 -0.82,-0.23 -1.602,-0.39 -2.379,-0.39 -3.121,0 -6.09,1.988 -7.109,5.16 z M 487.77,512.34 c -3.36,2.461 -4.141,7.148 -1.68,10.512 2.39,3.32 7.07,4.058 10.43,1.636 3.359,-2.418 4.179,-7.109 1.718,-10.468 -1.437,-2.032 -3.75,-3.079 -6.09,-3.079 -1.527,0 -3.089,0.469 -4.378,1.399 z m -228.899,0.98 c -2.422,3.36 -1.68,8.09 1.68,10.508 3.277,2.461 8,1.723 10.429,-1.637 2.461,-3.363 1.719,-8.05 -1.601,-10.429 -1.328,-1.024 -2.899,-1.453 -4.457,-1.453 -2.301,0 -4.57,1.019 -6.051,3.011 z M 529.02,471.371 c -2.461,3.359 -1.75,8.078 1.601,10.508 3.359,2.461 8.051,1.711 10.508,-1.649 2.391,-3.281 1.723,-8 -1.641,-10.429 -1.367,-1.012 -2.929,-1.442 -4.41,-1.442 -2.308,0 -4.609,1.02 -6.058,3.012 z m -311.129,-2.543 c -3.36,2.422 -4.102,7.113 -1.68,10.473 2.418,3.32 7.109,4.097 10.469,1.679 3.359,-2.429 4.101,-7.152 1.64,-10.511 -1.441,-1.989 -3.75,-3.09 -6.019,-3.09 -1.563,0 -3.082,0.473 -4.41,1.449 z m 337.73,-49.137 c -1.281,3.938 0.859,8.2 4.77,9.489 3.949,1.289 8.199,-0.86 9.488,-4.801 1.293,-3.867 -0.859,-8.129 -4.801,-9.457 -0.738,-0.231 -1.527,-0.391 -2.348,-0.391 -3.16,0 -6.089,2.028 -7.109,5.16 z m -363,-5.863 c -3.949,1.25 -6.141,5.512 -4.851,9.453 1.25,3.91 5.511,6.098 9.46,4.809 3.899,-1.25 6.09,-5.512 4.801,-9.418 -0.98,-3.203 -3.941,-5.192 -7.109,-5.192 -0.781,0 -1.524,0.11 -2.301,0.348 z m 372.258,-52.226 v 0.738 c 0,4.14 3.359,7.5 7.461,7.539 4.14,0 7.539,-3.359 7.539,-7.5 v -0.777 c 0,-4.141 -3.359,-7.5 -7.5,-7.5 -4.141,0 -7.5,3.359 -7.5,7.5 z m -386.758,-0.391 c 0,4.141 3.359,7.461 7.5,7.539 4.109,0 7.5,-3.359 7.5,-7.5 0,-4.141 -3.351,-7.5 -7.5,-7.578 -4.141,0 -7.5,3.359 -7.5,7.539 z M 560.66,294.73 c -3.941,1.25 -6.051,5.5 -4.84,9.45 1.289,3.91 5.551,6.09 9.45,4.8 3.949,-1.25 6.14,-5.5 4.851,-9.449 -1.019,-3.16 -3.992,-5.191 -7.109,-5.191 -0.782,0 -1.563,0.148 -2.352,0.39 z m -372.609,4.45 c -1.289,3.941 0.82,8.16 4.801,9.449 3.867,1.25 8.128,-0.859 9.418,-4.801 1.25,-3.949 -0.821,-8.207 -4.77,-9.449 -0.82,-0.238 -1.559,-0.399 -2.34,-0.399 -3.172,0 -6.14,2 -7.109,5.2 z M 531.09,241.949 c -3.36,2.391 -4.059,7.071 -1.641,10.43 2.43,3.359 7.11,4.101 10.473,1.68 3.359,-2.457 4.098,-7.11 1.68,-10.469 -1.481,-2.031 -3.75,-3.121 -6.133,-3.121 -1.489,0 -3.047,0.472 -4.379,1.48 z m -314.41,1.289 v 0.043 c -2.461,3.321 -1.68,8.008 1.601,10.469 3.36,2.422 8.047,1.68 10.508,-1.68 2.461,-3.281 1.68,-7.968 -1.641,-10.429 -1.328,-1.02 -2.847,-1.442 -4.418,-1.442 -2.3,0 -4.609,1.051 -6.05,3.039 z m 270,-42.457 c -2.379,3.36 -1.68,8.047 1.64,10.469 3.36,2.422 8.051,1.68 10.508,-1.602 2.461,-3.359 1.723,-8.046 -1.637,-10.507 -1.371,-0.942 -2.851,-1.442 -4.421,-1.442 -2.34,0 -4.571,1.09 -6.09,3.082 z M 261.129,198.91 c -3.359,2.418 -4.098,7.11 -1.641,10.469 2.391,3.351 7.071,4.101 10.434,1.672 3.359,-2.422 4.098,-7.102 1.719,-10.461 -1.52,-2.039 -3.75,-3.09 -6.09,-3.09 -1.531,0 -3.051,0.43 -4.422,1.41 z m 170.672,-23.558 c -1.289,3.949 0.82,8.199 4.801,9.418 3.949,1.32 8.199,-0.821 9.418,-4.77 1.32,-3.98 -0.821,-8.16 -4.77,-9.449 -0.781,-0.281 -1.559,-0.352 -2.301,-0.352 -3.168,0 -6.097,1.992 -7.148,5.153 z M 317.148,170.43 c -3.988,1.25 -6.097,5.511 -4.808,9.449 1.25,3.91 5.512,6.101 9.379,4.812 h 0.082 c 3.859,-1.25 6.09,-5.511 4.801,-9.461 -1.012,-3.16 -3.981,-5.191 -7.114,-5.191 -0.816,0 -1.558,0.16 -2.34,0.391 z m 62.032,-9.731 c -4.102,0 -7.5,3.403 -7.5,7.461 0,4.18 3.359,7.578 7.5,7.578 4.14,0 7.5,-3.359 7.5,-7.5 0,-4.136 -3.36,-7.5 -7.461,-7.539 h -0.039" /><path
         id="path28"
         style="fill:#363636;fill-opacity:1;fill-rule:nonzero;stroke:none"
         d="m 390.66,277.379 h -19.211 c -19.179,0 -34.73,15.551 -34.73,34.691 0,4.18 3.359,7.5 7.5,7.5 4.179,0 7.5,-3.32 7.5,-7.5 0,-10.82 8.871,-19.691 19.73,-19.691 h 19.211 c 10.86,0 19.731,8.871 19.731,19.691 v 19.258 c 0,10.863 -8.871,19.723 -19.731,19.723 h -19.211 c -19.179,0 -34.73,15.551 -34.73,34.687 V 405 c 0,19.102 15.551,34.648 34.73,34.648 h 19.211 c 19.18,0 34.731,-15.546 34.731,-34.648 v -0.859 c 0,-4.141 -3.36,-7.5 -7.5,-7.5 -4.141,0 -7.5,3.359 -7.5,7.5 V 405 c 0,10.82 -8.871,19.648 -19.731,19.648 h -19.211 c -10.859,0 -19.73,-8.828 -19.73,-19.648 v -19.262 c 0,-10.898 8.871,-19.687 19.73,-19.687 h 19.211 c 19.18,0 34.731,-15.582 34.731,-34.723 V 312.07 c 0,-19.14 -15.551,-34.691 -34.731,-34.691" /><path
         id="path30"
         style="fill:#363636;fill-opacity:1;fill-rule:nonzero;stroke:none"
         d="m 381.02,427.66 c -4.071,0 -7.5,3.32 -7.5,7.5 v 28.981 c 0,4.14 3.429,7.5 7.5,7.5 4.179,0 7.531,-3.36 7.531,-7.5 V 435.16 c 0,-4.18 -3.352,-7.5 -7.531,-7.5" /><path
         id="path32"
         style="fill:#363636;fill-opacity:1;fill-rule:nonzero;stroke:none"
         d="m 381.02,248.398 c -4.071,0 -7.5,3.364 -7.5,7.5 v 28.981 c 0,4.141 3.429,7.5 7.5,7.5 4.179,0 7.531,-3.359 7.531,-7.5 v -28.981 c 0,-4.136 -3.352,-7.5 -7.531,-7.5" /></g></g></svg>