<?xml version="1.0" encoding="UTF-8" standalone="no"?>
<svg
   xmlns:dc="http://purl.org/dc/elements/1.1/"
   xmlns:cc="http://creativecommons.org/ns#"
   xmlns:rdf="http://www.w3.org/1999/02/22-rdf-syntax-ns#"
   xmlns:svg="http://www.w3.org/2000/svg"
   xmlns="http://www.w3.org/2000/svg"
   viewBox="0 0 100 100"
   height="100"
   width="100"
   xml:space="preserve"
   id="svg2"
   version="1.1"><metadata
     id="metadata8"><rdf:RDF><cc:Work
         rdf:about=""><dc:format>image/svg+xml</dc:format><dc:type
           rdf:resource="http://purl.org/dc/dcmitype/StillImage" /></cc:Work></rdf:RDF></metadata><defs
     id="defs6" /><g
     transform="matrix(1.3333333,0,0,-1.3333333,0,100)"
     id="g10"><g
       transform="scale(0.1)"
       id="g12"><path
         id="path14"
         style="fill:#ffffff;fill-opacity:1;fill-rule:nonzero;stroke:none"
         d="M 0,0 H 750 V 750 H 0 Z" /><path
         id="path16"
         style="fill:#363636;fill-opacity:1;fill-rule:nonzero;stroke:none"
         d="M 166.41,253.16 H 590.941 V 566.988 H 166.41 Z m 432.031,-15 H 158.91 c -4.18,0 -7.5,3.36 -7.5,7.5 v 328.828 c 0,4.184 3.32,7.5 7.5,7.5 h 439.531 c 4.18,0 7.5,-3.316 7.5,-7.5 V 245.66 c 0,-4.14 -3.32,-7.5 -7.5,-7.5 z M 142.148,600.512 c -5.117,0 -9.257,-4.141 -9.257,-9.262 V 228.91 c 0,-5.121 4.14,-9.262 9.257,-9.262 h 473.051 c 5.11,0 9.25,4.141 9.25,9.262 v 362.34 c 0,5.121 -4.14,9.262 -9.25,9.262 z M 615.199,204.648 H 142.148 c -13.359,0 -24.257,10.903 -24.257,24.262 v 362.34 c 0,13.359 10.898,24.262 24.257,24.262 h 473.051 c 13.391,0 24.25,-10.903 24.25,-24.262 V 228.91 c 0,-13.359 -10.859,-24.262 -24.25,-24.262" /><path
         id="path18"
         style="fill:#363636;fill-opacity:1;fill-rule:nonzero;stroke:none"
         d="m 344.488,157.66 h 66.293 v 46.988 h -66.293 z m 73.793,-15 h -81.293 c -4.136,0 -7.5,3.391 -7.5,7.5 v 61.988 c 0,4.18 3.364,7.5 7.5,7.5 h 81.293 c 4.18,0 7.5,-3.32 7.5,-7.5 V 150.16 c 0,-4.109 -3.32,-7.5 -7.5,-7.5" /><path
         id="path20"
         style="fill:#363636;fill-opacity:1;fill-rule:nonzero;stroke:none"
         d="M 255.512,114.922 H 499.488 C 496.051,130.738 481.91,142.66 465,142.66 H 290 c -16.91,0 -31.051,-11.922 -34.488,-27.738 z M 507.809,99.9219 H 247.191 c -4.101,0 -7.5,3.3161 -7.5,7.5001 0,27.699 22.61,50.238 50.309,50.238 h 175 c 27.699,0 50.27,-22.539 50.27,-50.238 0,-4.184 -3.321,-7.5001 -7.461,-7.5001" /><path
         id="path22"
         style="fill:#363636;fill-opacity:1;fill-rule:nonzero;stroke:none"
         d="m 530.59,283.32 c -1.68,0 -3.442,0.59 -4.852,1.801 l -64.367,54.527 -35.672,-7.378 c -2.148,-0.469 -4.371,0.031 -6.051,1.32 -1.757,1.332 -2.808,3.32 -2.968,5.469 l -3.828,55 -54.411,-11.289 c -2.152,-0.469 -4.339,0.039 -6.062,1.332 -1.719,1.289 -2.77,3.32 -2.93,5.468 l -3.859,54.918 -54.379,-11.289 c -2.191,-0.429 -4.371,0.039 -6.051,1.371 -1.762,1.289 -2.82,3.282 -2.969,5.469 L 278.359,495 223.949,483.672 c -3.359,-0.703 -6.679,0.937 -8.211,3.949 l -22.539,44.367 c -1.828,3.711 -0.39,8.211 3.281,10.082 3.719,1.879 8.211,0.43 10.122,-3.242 l 19.878,-39.34 57.231,11.922 c 2.148,0.469 4.34,-0.039 6.09,-1.332 1.679,-1.328 2.777,-3.316 2.929,-5.469 l 3.829,-54.961 54.382,11.293 c 2.149,0.469 4.368,-0.043 6.047,-1.332 1.762,-1.289 2.813,-3.32 2.973,-5.468 l 3.828,-55 54.41,11.371 c 2.153,0.468 4.34,-0.043 6.063,-1.371 1.718,-1.332 2.769,-3.282 2.929,-5.469 l 3.86,-54.961 30.859,6.41 c 2.231,0.43 4.57,-0.16 6.328,-1.641 l 67.192,-56.921 c 3.16,-2.688 3.55,-7.418 0.859,-10.579 -1.449,-1.761 -3.59,-2.66 -5.699,-2.66" /><path
         id="path24"
         style="fill:#363636;fill-opacity:1;fill-rule:nonzero;stroke:none"
         d="m 533.75,280.16 h -29.34 c -4.18,0 -7.5,3.36 -7.5,7.5 0,4.141 3.32,7.5 7.5,7.5 h 21.84 v 21.828 c 0,4.184 3.359,7.5 7.5,7.5 4.141,0 7.5,-3.316 7.5,-7.5 V 287.66 c 0,-4.14 -3.359,-7.5 -7.5,-7.5" /></g></g></svg>