<?xml version="1.0" encoding="UTF-8" standalone="no"?>
<svg
   xmlns:dc="http://purl.org/dc/elements/1.1/"
   xmlns:cc="http://creativecommons.org/ns#"
   xmlns:rdf="http://www.w3.org/1999/02/22-rdf-syntax-ns#"
   xmlns:svg="http://www.w3.org/2000/svg"
   xmlns="http://www.w3.org/2000/svg"
   viewBox="0 0 35.453335 42.933334"
   height="42.933334"
   width="35.453335"
   xml:space="preserve"
   id="svg2"
   version="1.1"><metadata
     id="metadata8"><rdf:RDF><cc:Work
         rdf:about=""><dc:format>image/svg+xml</dc:format><dc:type
           rdf:resource="http://purl.org/dc/dcmitype/StillImage" /></cc:Work></rdf:RDF></metadata><defs
     id="defs6" /><g
     transform="matrix(1.3333333,0,0,-1.3333333,0,42.933333)"
     id="g10"><g
       transform="scale(0.1)"
       id="g12"><path
         id="path14"
         style="fill:#7fcb28;fill-opacity:1;fill-rule:nonzero;stroke:none"
         d="m 121.703,150.332 c 1.434,8.125 3.793,15.918 6.777,23.516 11.926,30.418 31.696,54.707 57.641,74.132 8.863,6.629 18.289,12.356 28.113,17.43 3.414,1.762 4.664,5.137 3.079,8.254 -1.598,3.125 -5.04,4.133 -8.442,2.391 -17.976,-9.215 -34.41,-20.625 -48.98,-34.692 -19.836,-19.152 -34.786,-41.508 -44.157,-67.554 -0.468,-1.293 -0.921,-2.598 -1.504,-4.246 -0.464,0.925 -0.765,1.55 -1.089,2.167 -5.965,11.352 -14.0668,21.063 -23.0394,30.09 -2.3203,2.34 -5.918,2.176 -8.2383,-0.191 -2.3594,-2.41 -2.3633,-5.891 0.0586,-8.426 4.1679,-4.359 8.2617,-8.781 11.9531,-13.574 5.9805,-7.754 10.715,-16.191 13.809,-25.524 0.152,-0.457 0.285,-0.921 0.476,-1.57 -2.082,0.379 -3.863,1.149 -5.652,1.84 -34.1408,13.199 -59.7072,36.078 -76.6525,68.645 -5.4102,10.402 -9.3047,21.378 -12.0235,32.793 -0.3515,1.457 0.1758,1.691 1.2969,1.867 9.8203,1.558 19.6445,1.691 29.4375,-0.047 19.4492,-3.453 35.9766,-12.403 49.5117,-26.867 4.0977,-4.375 7.6409,-9.184 10.7739,-14.293 0.113,-0.184 0.253,-0.356 0.472,-0.649 1.207,3.68 2.301,7.262 3.555,10.789 6.656,18.621 16.719,35.176 30.211,49.594 20.5,21.918 45.406,36.129 74.648,42.563 15.86,3.492 31.883,4.066 48.012,2.125 1.152,-0.141 1.469,-0.7 1.629,-1.665 1.781,-10.8 2.492,-21.656 1.902,-32.597 -0.722,-13.313 -3.218,-26.262 -7.472,-38.887 -15.746,-46.781 -55.668,-82.945 -103.579,-93.84 -10.304,-2.34 -20.73,-3.562 -31.292,-3.66 -0.383,-0.008 -0.766,0.055 -1.235,0.086" /><path
         id="path16"
         style="fill:#205460;fill-opacity:1;fill-rule:nonzero;stroke:none"
         d="m 190.516,38.3203 c -1.703,-6.7461 -3.93,-13.2305 -6.02,-19.7617 -1.699,-5.3164 -3.433,-10.61719 -5.074,-15.94922 -0.414,-1.34766 -1.008,-1.718755 -2.828,-1.49219 -2.875,0.36719 -5.785,0.46094 -8.66,0.09375 -2.387,-0.300784 -3.235,-0.285159 -3.707,1.36328 -3.442,11.97658 -7.77,23.68748 -10.567,35.85548 -0.082,-0.0039 -0.055,0 -0.137,-0.0039 -1.156,-12.0078 -2.933,-23.9531 -4.371,-35.93361 -0.14,-1.1836 -0.535,-1.44531 -1.636,-1.42578 -3.621,0.0664 -7.246,0.04687 -10.868,0.00781 -0.937,-0.00781 -1.359,0.03516 -1.168,1.25 2.766,17.44138 5.473,34.89458 8.153,52.35158 0.199,1.3281 0.551,1.5117 2.98,1.1406 4.098,-0.6211 8.282,-0.6445 12.36,0.0977 1.976,0.3554 2.16,-0.4727 2.465,-1.4883 3.605,-11.9024 8.039,-23.5508 10.898,-35.6797 0.012,-0.0508 0.07,-0.082 0.254,-0.293 0.859,4 1.973,7.7891 3.219,11.5391 2.746,8.2617 5.464,16.5273 8.144,24.8086 0.293,0.918 0.703,1.1914 1.637,1.1797 4.961,-0.0469 9.922,-0.0391 14.887,-0.0078 0.886,0.0078 1.336,-0.0977 1.5,-1.1914 2.601,-17.4063 5.253,-34.8086 7.929,-52.20708 0.176,-1.15234 -0.062,-1.53906 -1.308,-1.51563 -3.844,0.08594 -7.692,0.07422 -11.539,0.00782 -1.09,-0.01953 -1.508,0.22265 -1.661,1.38672 -1.011,7.64457 -2.125,15.27737 -3.175,22.91797 -0.594,4.3125 -1.141,8.6328 -1.707,12.9492" /><path
         id="path18"
         style="fill:#7fcb28;fill-opacity:1;fill-rule:nonzero;stroke:none"
         d="m 190.539,113.535 c -2.293,-9.254 -5.605,-18.0936 -8.387,-27.0975 -0.906,-2.9336 -1.922,-5.8359 -2.781,-8.7812 -0.445,-1.5313 -1.332,-1.5665 -3.484,-1.2891 -2.895,0.375 -5.824,0.3164 -8.723,-0.0625 -1.875,-0.2461 -2.531,0.082 -2.941,1.4844 -3.395,11.6836 -7.539,23.1449 -10.387,34.9879 -0.063,0.254 -0.02,0.578 -0.332,0.692 -1.152,-11.949 -2.918,-23.8401 -4.356,-35.762 -0.136,-1.1445 -0.5,-1.4882 -1.625,-1.4726 -3.625,0.0703 -7.246,0.0547 -10.871,0.0117 -1,-0.0117 -1.332,0.1602 -1.152,1.3086 2.754,17.4414 5.465,34.8833 8.137,52.3363 0.117,0.746 0.761,1.293 1.511,1.289 4.821,-0.051 9.645,-0.071 14.465,0.008 1.153,0.019 1.504,-0.469 1.789,-1.43 3.551,-11.926 8.078,-23.551 10.86,-35.7072 0.019,-0.086 0.164,-0.1445 0.281,-0.2422 3.098,12.1094 7.547,23.7654 11.238,35.6604 0.387,1.246 0.852,1.765 2.266,1.734 4.793,-0.117 9.586,-0.07 14.383,-0.023 1,0.004 1.39,-0.203 1.554,-1.325 2.59,-17.347 5.239,-34.6948 7.903,-52.0308 0.199,-1.2851 -0.043,-1.7695 -2.032,-1.5351 -3.007,0.3554 -6.046,0.4609 -9.054,0.1211 -2.985,-0.3321 -3.379,-0.4414 -3.442,2.2343 -0.156,6.211 -0.921,12.3868 -2.312,18.4375 -1.246,5.43 -1.82,10.945 -2.508,16.453" /><path
         id="path20"
         style="fill:#205460;fill-opacity:1;fill-rule:nonzero;stroke:none"
         d="M 252.504,9.44922 C 248.492,2.4375 242.219,-0.0859375 234.641,0 c -1.7,0.0195313 -3.407,0.210938 -5.039,0.699219 -7.153,2.148441 -10.215,7.820311 -9.825,14.808581 0.43,7.6914 4.926,12.4453 11.543,15.5 5.77,2.6563 11.93,3.5195 18.2,3.6367 1.472,0.0235 2.191,0.2969 1.914,1.8985 -0.082,0.4883 -0.004,1.0078 -0.024,1.5117 -0.195,4.9492 -2.656,7.5937 -7.57,8.1094 -6.391,0.6718 -12.391,-0.7578 -18.106,-3.5313 -1.156,-0.5625 -1.336,-0.3867 -1.429,0.8164 -0.235,3.0078 -0.621,6 -0.91,9.0078 -0.067,0.7071 -0.383,1.4649 0.796,1.8399 9.497,3.039 19.133,4.2539 28.946,1.9648 7.816,-1.8242 12.011,-6.9336 12.293,-15.0195 0.226,-6.7656 0.043,-13.543 0.105,-20.3086 0.059,-6.1523 0.18,-12.30079 0.336,-18.45313 0.031,-1.14063 -0.25,-1.488282 -1.609,-1.40625 -3.422,0.21484 -6.856,0.16016 -10.285,-0.00391 -1.27,-0.0625 -1.594,0.31641 -1.512,1.42578 0.156,2.00782 0.223,4.01954 0.324,6.02344 0.074,0.36328 0.488,0.83203 -0.285,0.92969" /><path
         id="path22"
         style="fill:#7fcb28;fill-opacity:1;fill-rule:nonzero;stroke:none"
         d="m 252.797,84.2695 c -3.231,-4.7265 -7.492,-7.6328 -12.961,-8.6914 -4.953,-0.957 -9.813,-0.6797 -14.188,2.1211 -4.675,2.9961 -6.132,7.6485 -5.875,12.918 0.34,6.918 4.071,11.6448 10.008,14.7888 5.907,3.125 12.301,4.157 18.867,4.379 2.821,0.098 2.821,0.074 2.77,2.949 -0.086,5.539 -2.738,8.301 -8.262,8.684 -6.097,0.418 -11.851,-0.898 -17.308,-3.539 -1.129,-0.551 -1.457,-0.504 -1.551,0.848 -0.219,3.011 -0.598,6.003 -0.918,9.007 -0.09,0.813 -0.152,1.461 0.922,1.797 9.48,2.969 19.094,4.176 28.898,1.903 6.992,-1.625 11.989,-7.817 12.231,-15.012 0.222,-6.992 0.043,-13.992 0.101,-20.9923 0.055,-5.8203 0.129,-11.6328 0.332,-17.4492 0.071,-2.0391 -0.797,-1.8516 -3.707,-1.6016 -2.484,0.2149 -4.984,0.1055 -7.465,-0.1289 -1.921,-0.1758 -2.378,0.3281 -2.238,1.8828 0.192,2.0391 0.235,4.0899 0.344,6.1367" /><path
         id="path24"
         style="fill:#7fcb28;fill-opacity:1;fill-rule:nonzero;stroke:none"
         d="m 97.332,76.2695 c -5.5664,0 -10.7929,0.0039 -16.0117,-0.0039 -0.8672,0 -1.0586,0.7383 -1.3945,1.2735 -3.9024,6.1875 -7.7852,12.3906 -11.6797,18.5742 -0.3203,0.5039 -0.5039,1.1289 -1.168,1.4375 -0.4883,-0.5274 -0.2539,-1.168 -0.2539,-1.7344 -0.0195,-5.9883 -0.0429,-11.9766 0.0156,-17.9648 0.0079,-1.3555 -0.3281,-1.7539 -2.082,-1.586 -3.125,0.2891 -6.2656,0.3321 -9.3906,0.0313 -1.5938,-0.1563 -2.1406,-0.0156 -2.1406,1.2656 0.0234,17.4609 0.0234,34.9215 0,52.3825 0,0.969 0.3359,1.246 1.2343,1.262 7.9063,0.106 15.8086,0.719 23.6993,-0.059 4.332,-0.429 8.3515,-1.714 11.7968,-4.585 6.2071,-5.18 6.875,-19.86 -4.2812,-24.973 -1.0117,-0.465 -2.0313,-0.981 -3.1055,-1.207 -1.2851,-0.285 -1.2148,-0.6799 -0.5625,-1.6252 3.336,-4.8242 6.6133,-9.6914 9.9102,-14.539 1.7226,-2.5274 3.4492,-5.0625 5.414,-7.9493" /><path
         id="path26"
         style="fill:#205460;fill-opacity:1;fill-rule:nonzero;stroke:none"
         d="m 13.625,32.5938 c 4.1016,5.371 7.8906,10.332 11.6797,15.2929 1.832,2.3985 3.6758,4.7813 5.4844,7.1992 0.4297,0.5704 0.8476,0.9024 1.6289,0.8946 C 37.5469,55.9414 42.6719,55.957 47.8867,55.957 47.8555,55.2383 47.3281,54.8633 46.9805,54.4297 40.6914,46.5156 34.418,38.5898 28.0586,30.7344 c -0.8008,-0.9883 -0.6133,-1.5156 0.0586,-2.375 6.7383,-8.5547 13.4375,-17.1406 20.1484,-25.72659 0.3321,-0.42578 0.6485,-0.85937 1.1563,-1.54297 -1.9063,0 -3.5469,0 -5.1875,0 -3.7344,0 -7.4688,0.04297 -11.2031,-0.01953 C 31.9219,1.05078 31.2344,1.36328 30.5703,2.30078 25.418,9.53125 20.1992,16.7148 14.9961,23.918 14.6445,24.4063 14.2695,24.8789 13.8438,25.4453 13.4844,24.8984 13.6367,24.3945 13.6289,23.9375 13.6211,16.8203 13.5859,9.71484 13.6602,2.60156 13.668,1.30469 13.2891,1.03516 12.0742,1.05859 8.5625,1.14453 5.05078,1.13281 1.53906,1.07031 0.441406,1.05078 -0.00390625,1.23438 -0.00390625,2.49609 0.0429688,19.8477 0.0351563,37.207 0.0078125,54.5625 c 0,1.2539 0.3281255,1.5664 2.0859375,1.3711 1.90234,-0.2109 3.82031,-0.3359 5.73438,-0.25 4.73437,0.2187 5.85157,0.9922 5.83207,-1.2383 C 13.5859,47.3398 13.625,40.2344 13.625,32.5938" /><path
         id="path28"
         style="fill:#7fcb28;fill-opacity:1;fill-rule:nonzero;stroke:none"
         d="m 0.0507813,103.773 c 0,8.567 0.0234375,17.129 -0.0234375,25.696 -0.0039063,1.23 0.2343752,1.761 1.6054662,1.765 6.07032,0.028 12.14059,0.262 18.21489,0.227 5.5781,-0.023 11.0195,-0.898 15.6562,-4.359 5.4297,-4.063 6.9297,-9.778 6.3359,-16.215 -0.8867,-9.59 -8.2109,-15.6761 -17.707,-17.3557 -2.8164,-0.5 -5.6523,-0.629 -8.4922,-0.3711 -1.5117,0.1406 -2.1211,-0.1289 -2.0703,-1.8789 0.1485,-4.4727 0.0117,-8.9571 0.0742,-13.4336 0.0235,-1.4414 -0.3867,-1.7774 -2.3593,-1.5508 -2.78129,0.3086 -5.58989,0.3398 -8.37895,0.0312 -2.265625,-0.2539 -2.8945312,-0.1015 -2.8828125,1.5821 0.0585938,8.625 0.0273438,17.2421 0.0273438,25.8628" /><path
         id="path30"
         style="fill:#205460;fill-opacity:1;fill-rule:nonzero;stroke:none"
         d="m 59.0664,28.6719 c 0,8.6172 0.0234,17.2383 -0.0312,25.8554 -0.0079,1.7579 0.7187,1.5625 3.7148,1.2735 2.5664,-0.2422 5.1484,-0.1524 7.707,0.1367 1.9883,0.2188 2.3008,-0.1445 2.293,-1.5547 -0.0391,-13.1562 -0.0039,-26.3047 -0.0508,-39.4609 -0.0117,-1.336 0.2266,-1.8047 1.6875,-1.7774 4.8477,0.1016 9.6992,-0.0078 14.5469,0.0743 1.4805,0.0234 1.6484,-0.504 1.5195,-2.1993 C 90.2266,8.20313 90.3203,5.37891 90.4766,2.55469 90.5391,1.34766 90.2188,1.06641 89.1563,1.07031 79.5664,1.10547 69.9844,1.11328 60.3984,1.06641 59.2656,1.05859 59.0391,1.42188 59.0469,2.47656 59.0859,11.207 59.0664,19.9375 59.0664,28.6719" /><path
         id="path32"
         style="fill:#205460;fill-opacity:1;fill-rule:nonzero;stroke:none"
         d="m 108.188,28.6172 c 0,8.6211 0.019,17.2383 -0.028,25.8555 -0.004,1.125 0.211,1.5468 1.438,1.5195 3.562,-0.0899 7.132,-0.0742 10.699,-0.0117 1.105,0.0273 1.531,-0.2032 1.527,-1.4453 -0.039,-17.3477 -0.035,-34.6954 -0.004,-52.03911 0,-1.32421 -0.351,-1.62109 -2.441,-1.33984 -2.84,0.38672 -5.723,0.47266 -8.551,0.03516 -2.406,-0.371097 -2.672,0.01953 -2.66,1.40625 0.039,8.67184 0.02,17.34764 0.02,26.01954" /><path
         id="path34"
         style="fill:#7fcb28;fill-opacity:1;fill-rule:nonzero;stroke:none"
         d="m 121.762,103.785 c 0,-8.617 -0.032,-17.2342 0.023,-25.8553 0.012,-1.2734 -0.316,-1.707 -1.566,-1.6992 -3.539,0.0273 -7.082,0.0781 -10.621,0.0117 -1.106,-0.0234 -1.43,0.3125 -1.426,1.4101 0.027,17.4063 0.027,34.8087 0,52.2107 -0.004,0.739 0.594,1.328 1.332,1.317 3.613,-0.063 7.226,-0.075 10.84,0.008 1.242,0.023 1.441,-0.45 1.437,-1.551 -0.039,-8.617 -0.019,-17.235 -0.019,-25.852" /><path
         id="path36"
         style="fill:#649d9f;fill-opacity:1;fill-rule:nonzero;stroke:none"
         d="m 252.504,9.44922 c 0.098,0.19141 0.176,0.52734 0.297,0.54297 0.449,0.05861 0.308,-0.34766 0.277,-0.55469 -0.043,-0.30859 -0.183,-0.60937 -0.289,-0.91797 -0.098,0.31641 -0.187,0.6211 -0.285,0.92969" /><path
         id="path38"
         style="fill:#ffffff;fill-opacity:1;fill-rule:nonzero;stroke:none"
         d="m 248.66,25.3477 c 3.113,0.1171 3.113,0.1171 2.602,-3.0664 -0.973,-6.0157 -4.59,-10.1915 -9.715,-11.2227 -0.109,-0.0195 -0.215,-0.0547 -0.324,-0.0703 -3.637,-0.6055 -6.68,0.918 -7.629,3.8164 -1.039,3.1445 0.402,6.3906 3.59,8.1289 2.66,1.4492 6.32,2.2187 11.476,2.4141" /><path
         id="path40"
         style="fill:#ffffff;fill-opacity:1;fill-rule:nonzero;stroke:none"
         d="m 248.441,100.563 c 3.188,0.109 3.254,0.035 2.891,-2.7622 -0.754,-5.7891 -4.266,-10.1485 -9.172,-11.4297 -1.32,-0.3438 -2.66,-0.3945 -3.98,-0.1602 -2.082,0.3711 -3.793,1.3672 -4.5,3.5196 -0.766,2.3359 -0.485,4.5429 1.125,6.4648 1.621,1.9414 3.879,2.7539 6.222,3.3555 2.543,0.6562 5.153,0.9022 7.414,1.0122" /><path
         id="path42"
         style="fill:#ffffff;fill-opacity:1;fill-rule:nonzero;stroke:none"
         d="m 66.8125,113.84 c 0,1.957 0.0195,3.91 -0.0117,5.863 -0.0117,0.711 0.1289,1.168 0.9492,1.235 2.5664,0.21 5.1289,0.328 7.5898,-0.575 2.5235,-0.929 4.2813,-2.593 4.4922,-5.457 0.2305,-3.125 -0.9218,-5.578 -3.7226,-7.093 -2.6758,-1.45 -5.586,-1.223 -8.4766,-1 -0.7461,0.054 -0.8398,0.535 -0.8281,1.167 0.0234,1.954 0.0078,3.907 0.0078,5.86" /><path
         id="path44"
         style="fill:#ffffff;fill-opacity:1;fill-rule:nonzero;stroke:none"
         d="m 17.8164,120.453 c 2.2539,0.149 4.7734,-0.14 6.875,-1.902 2.5625,-2.149 3.4805,-5.602 2.4024,-8.977 -1.1524,-3.586 -3.9024,-5.16 -7.3946,-5.578 -1.5859,-0.191 -3.2187,-0.008 -4.8281,-0.031 -1.0391,-0.016 -1.2734,0.508 -1.2656,1.469 0.039,4.523 0.0586,9.05 -0.0078,13.57" /></g></g></svg>
