<?xml version="1.0" encoding="UTF-8"?>
<svg width="14px" height="16px" viewBox="0 0 14 16" version="1.1" xmlns="http://www.w3.org/2000/svg" xmlns:xlink="http://www.w3.org/1999/xlink">
    <!-- Generator: Sketch 46.1 (44463) - http://www.bohemiancoding.com/sketch -->
    <title>bag</title>
    <desc>Created with Sketch.</desc>
    <defs>
        <polygon id="path-1" points="0 15.9482 13.573 15.9482 13.573 0.0002 0 0.0002"></polygon>
    </defs>
    <g id="Page-1" stroke="none" stroke-width="1" fill="none" fill-rule="evenodd">
        <g id="koro" transform="translate(-119.000000, -480.000000)">
            <g id="bag" transform="translate(119.000000, 480.000000)">
                <path d="M8.6595,8.8647 C8.6595,9.5567 8.2805,10.1537 7.7225,10.4777 L7.7225,11.9767 C7.7225,12.4937 7.3035,12.9137 6.7865,12.9137 C6.2695,12.9137 5.8495,12.4937 5.8495,11.9767 L5.8495,10.4777 C5.2925,10.1537 4.9135,9.5567 4.9135,8.8647 C4.9135,7.8307 5.7515,6.9917 6.7865,6.9917 C7.8205,6.9917 8.6595,7.8307 8.6595,8.8647 Z" id="Fill-1" fill="#FEFEFE"></path>
                <path d="M8.6595,8.8647 C8.6595,7.8307 7.8205,6.9917 6.7865,6.9917 C5.7515,6.9917 4.9135,7.8307 4.9135,8.8647 C4.9135,9.5567 5.2925,10.1537 5.8495,10.4777 L5.8495,11.9767 C5.8495,12.4937 6.2695,12.9137 6.7865,12.9137 C7.3035,12.9137 7.7225,12.4937 7.7225,11.9767 L7.7225,10.4777 C8.2805,10.1537 8.6595,9.5567 8.6595,8.8647 Z" id="Stroke-3" stroke="#000000" stroke-width="0.75"></path>
                <mask id="mask-2" fill="white">
                    <use xlink:href="#path-1"></use>
                </mask>
                <g id="Clip-6"></g>
                <polygon id="Stroke-5" stroke="#000000" stroke-width="0.75" mask="url(#mask-2)" points="0.375 15.5732 13.198 15.5732 13.198 4.3142 0.375 4.3142"></polygon>
                <path d="M9.4949,4.2036 L9.4949,2.8766 C9.4949,1.4956 8.2819,0.3746 6.7859,0.3746 C5.2909,0.3746 4.0779,1.4956 4.0779,2.8766 L4.0779,4.2036" id="Stroke-7" stroke="#000000" stroke-width="0.75" mask="url(#mask-2)"></path>
            </g>
        </g>
    </g>
</svg>