<?xml version="1.0" encoding="UTF-8" standalone="no"?>
<svg width="29px" height="20px" viewBox="0 0 29 20" version="1.1" xmlns="http://www.w3.org/2000/svg" xmlns:xlink="http://www.w3.org/1999/xlink">
    <!-- Generator: Sketch 47.1 (45422) - http://www.bohemiancoding.com/sketch -->
    <title>cart-tablet</title>
    <desc>Created with Sketch.</desc>
    <defs>
        <path d="M28.5756,10 C28.5756,4.615 24.2666,0.25 18.9516,0.25 C18.8161,0.25 18.6846,0.2445 18.5506,0.25 L10.2751,0.25 C10.1411,0.2445 10.0096,0.25 9.8741,0.25 C4.5586,0.25 0.2501,4.615 0.2501,10 C0.2501,15.385 4.5586,19.75 9.8741,19.75 C10.0096,19.75 10.1411,19.7555 10.2751,19.75 L18.5506,19.75 C18.6846,19.7555 18.8161,19.75 18.9516,19.75 C24.2666,19.75 28.5756,15.385 28.5756,10 Z" id="path-1"></path>
    </defs>
    <g id="Design-Tutorial-Screens" stroke="none" stroke-width="1" fill="none" fill-rule="evenodd">
        <g id="cart-tablet">
            <g id="Stroke-1">
                <use fill="#FFFFFF" fill-rule="evenodd" xlink:href="#path-1"></use>
                <path stroke="#000000" stroke-width="1" d="M28.0756,10 C28.0756,4.88984347 23.989136,0.75 18.9516,0.75 C18.8783933,0.749667381 18.8783933,0.749667381 18.8103297,0.748730676 C18.7546965,0.747968044 18.7546965,0.747968044 18.7025188,0.747592893 C18.6518033,0.747394393 18.6099646,0.747984382 18.5506,0.75 L10.2545949,0.749579363 C10.2157354,0.747984382 10.1738967,0.747394393 10.1231812,0.747592893 C10.0710035,0.747968044 10.0710035,0.747968044 10.0153703,0.748730676 C9.94730672,0.749667381 9.94730672,0.749667381 9.8741,0.75 C4.83624074,0.75 0.7501,4.88966456 0.7501,10 C0.7501,15.1103354 4.83624074,19.25 9.8741,19.25 C9.94730672,19.2503326 9.94730672,19.2503326 10.0153703,19.2512693 C10.0710035,19.252032 10.0710035,19.252032 10.1231812,19.2524071 C10.1738967,19.2526056 10.2157354,19.2520156 10.2751,19.25 L18.5711051,19.2504206 C18.6099646,19.2520156 18.6518033,19.2526056 18.7025188,19.2524071 C18.7546965,19.252032 18.7546965,19.252032 18.8103297,19.2512693 C18.8783933,19.2503326 18.8783933,19.2503326 18.9516,19.25 C23.989136,19.25 28.0756,15.1101565 28.0756,10 Z"></path>
            </g>
            <path d="M16.2399,5.9873 C16.2399,5.0278 15.4219,4.2498 14.4129,4.2498 C13.4039,4.2498 12.5859,5.0278 12.5859,5.9873" id="Stroke-3" stroke="#000000" stroke-width="0.5"></path>
            <polygon id="Fill-5" fill="#000000" fill-rule="nonzero" points="8.7228 7.6892 10.4733 15.7497 18.3518 15.7497 20.1028 7.6892"></polygon>
            <polygon id="Stroke-7" stroke="#000000" stroke-width="0.5" points="8.7228 7.6892 10.4733 15.7497 18.3518 15.7497 20.1028 7.6892"></polygon>
            <path d="M11.6547,11.37645 L16.9882,11.37595" id="Stroke-9" stroke="#F7F0E4" stroke-width="0.5"></path>
            <path d="M14.3202,8.68945 L14.3202,14.02245" id="Stroke-11" stroke="#F7F0E4" stroke-width="0.5"></path>
        </g>
    </g>
</svg>