<?xml version="1.0" encoding="UTF-8"?>
<svg width="24px" height="16px" viewBox="0 0 24 16" version="1.1" xmlns="http://www.w3.org/2000/svg" xmlns:xlink="http://www.w3.org/1999/xlink">
    <!-- Generator: Sketch 46.1 (44463) - http://www.bohemiancoding.com/sketch -->
    <title>van</title>
    <desc>Created with Sketch.</desc>
    <defs></defs>
    <g id="Page-1" stroke="none" stroke-width="1" fill="none" fill-rule="evenodd">
        <g id="koro" transform="translate(-166.000000, -480.000000)">
            <g id="van" transform="translate(166.000000, 480.000000)">
                <polygon id="Stroke-1" stroke="#000000" stroke-width="0.75" points="0.375 13.0754 14.839 13.0754 14.839 0.3754 0.375 0.3754"></polygon>
                <path d="M4.5508,15.5444 C5.5528,15.5444 6.3648,14.7324 6.3648,13.7304 C6.3648,12.7294 5.5528,11.9174 4.5508,11.9174 C3.5488,11.9174 2.7368,12.7294 2.7368,13.7304 C2.7368,14.7324 3.5488,15.5444 4.5508,15.5444" id="Fill-3" fill="#FEFEFE"></path>
                <path d="M4.5508,15.5444 C5.5528,15.5444 6.3648,14.7324 6.3648,13.7304 C6.3648,12.7294 5.5528,11.9174 4.5508,11.9174 C3.5488,11.9174 2.7368,12.7294 2.7368,13.7304 C2.7368,14.7324 3.5488,15.5444 4.5508,15.5444 Z" id="Stroke-4" stroke="#000000" stroke-width="0.75"></path>
                <path d="M14.9991,13.0752 L21.5781,13.0752 C21.5781,13.0752 22.9351,13.0752 22.9351,11.7402 L22.9351,9.9272 C22.9351,9.9272 22.9351,8.5912 21.5781,8.5912 L14.9991,8.5912" id="Stroke-5" stroke="#000000" stroke-width="0.75"></path>
                <path d="M21.3575,8.5048 C20.8995,7.6988 19.3575,5.0918 18.5665,5.0918 L14.9995,5.0918" id="Stroke-6" stroke="#000000" stroke-width="0.75"></path>
                <path d="M18.2491,15.5444 C19.2511,15.5444 20.0631,14.7324 20.0631,13.7304 C20.0631,12.7294 19.2511,11.9174 18.2491,11.9174 C17.2471,11.9174 16.4351,12.7294 16.4351,13.7304 C16.4351,14.7324 17.2471,15.5444 18.2491,15.5444" id="Fill-7" fill="#FEFEFE"></path>
                <path d="M18.2491,15.5444 C19.2511,15.5444 20.0631,14.7324 20.0631,13.7304 C20.0631,12.7294 19.2511,11.9174 18.2491,11.9174 C17.2471,11.9174 16.4351,12.7294 16.4351,13.7304 C16.4351,14.7324 17.2471,15.5444 18.2491,15.5444 Z" id="Stroke-8" stroke="#000000" stroke-width="0.75"></path>
            </g>
        </g>
    </g>
</svg>